<svg width="200" height="200" xmlns="http://www.w3.org/2000/svg">
  <defs>
    <linearGradient id="avatarBg" x1="0%" y1="0%" x2="100%" y2="100%">
      <stop offset="0%" style="stop-color:#4facfe;stop-opacity:1" />
      <stop offset="100%" style="stop-color:#00f2fe;stop-opacity:1" />
    </linearGradient>
    <linearGradient id="face" x1="0%" y1="0%" x2="100%" y2="100%">
      <stop offset="0%" style="stop-color:#ffeaa7;stop-opacity:1" />
      <stop offset="100%" style="stop-color:#fab1a0;stop-opacity:1" />
    </linearGradient>
  </defs>
  
  <!-- Background Circle -->
  <circle cx="100" cy="100" r="100" fill="url(#avatarBg)"/>
  
  <!-- Face -->
  <circle cx="100" cy="85" r="45" fill="url(#face)"/>
  
  <!-- Hair -->
  <path d="M 55 65 Q 100 35 145 65 Q 140 50 100 45 Q 60 50 55 65" fill="#2d3436"/>
  
  <!-- Eyes -->
  <circle cx="85" cy="80" r="4" fill="#2d3436"/>
  <circle cx="115" cy="80" r="4" fill="#2d3436"/>
  <circle cx="86" cy="79" r="1" fill="white"/>
  <circle cx="116" cy="79" r="1" fill="white"/>
  
  <!-- Nose -->
  <ellipse cx="100" cy="90" rx="2" ry="3" fill="#e17055" opacity="0.6"/>
  
  <!-- Mouth -->
  <path d="M 92 100 Q 100 108 108 100" stroke="#2d3436" stroke-width="2" fill="none" stroke-linecap="round"/>
  
  <!-- Body/Shirt -->
  <path d="M 60 140 Q 100 130 140 140 L 140 200 L 60 200 Z" fill="#74b9ff"/>
  
  <!-- Collar -->
  <path d="M 85 140 L 100 150 L 115 140" stroke="#0984e3" stroke-width="2" fill="none"/>
</svg>